<svg width="211" height="435" viewBox="0 0 211 435" fill="none" xmlns="http://www.w3.org/2000/svg">
<path fill-rule="evenodd" clip-rule="evenodd" d="M76.636 248L1 434.102L210.672 380.851L76.636 248Z" fill="#0063F7" stroke="#979797"/>
<path fill-rule="evenodd" clip-rule="evenodd" d="M198.45 243.001L65 285.713L132.033 341.061L198.45 243.001Z" fill="#F60000"/>
<path fill-rule="evenodd" clip-rule="evenodd" d="M121.008 211.637L198.647 112.95L202.517 124.147L124.878 222.834L121.008 211.637Z" fill="#E4F400"/>
<path fill-rule="evenodd" clip-rule="evenodd" d="M105.403 166.459L183.042 67.7716L186.912 78.9686L109.273 177.656L105.403 166.459Z" fill="#E4F400"/>
<path fill-rule="evenodd" clip-rule="evenodd" d="M89.7991 121.28L167.438 22.5934L171.308 33.7904L93.6691 132.477L89.7991 121.28Z" fill="#E4F400"/>
<path fill-rule="evenodd" clip-rule="evenodd" d="M128.805 234.216L132.675 245.413L210.314 146.726L206.444 135.528L128.805 234.216Z" fill="#E4F400"/>
<path fill-rule="evenodd" clip-rule="evenodd" d="M113.209 189.044L190.848 90.3568L194.712 101.562L117.073 200.249L113.209 189.044Z" fill="#E4F400"/>
<path fill-rule="evenodd" clip-rule="evenodd" d="M97.6042 143.866L175.243 45.1787L179.107 56.3837L101.468 155.071L97.6042 143.866Z" fill="#E4F400"/>
<path fill-rule="evenodd" clip-rule="evenodd" d="M159.639 0.00012207L82.0004 98.6881L85.8704 109.885L163.509 11.1971L159.639 0.00012207Z" fill="#E4F400"/>
</svg>
