<svg width="127" height="191" viewBox="0 0 127 191" fill="none" xmlns="http://www.w3.org/2000/svg">
<path fill-rule="evenodd" clip-rule="evenodd" d="M13.424 26L-37 156.332L102.781 119.039L13.424 26Z" fill="#0063F7" stroke="#979797"/>
<path fill-rule="evenodd" clip-rule="evenodd" d="M106.749 0L45 20.7611L76.0169 47.6643L106.749 0Z" fill="#F60000"/>
<path fill-rule="evenodd" clip-rule="evenodd" d="M67.0051 190.215L118.764 121.102L121.344 128.943L69.5851 198.056L67.0051 190.215Z" fill="#E4F400"/>
<path fill-rule="evenodd" clip-rule="evenodd" d="M56.6023 158.575L108.362 89.4624L110.942 97.3039L59.1823 166.417L56.6023 158.575Z" fill="#E4F400"/>
<path fill-rule="evenodd" clip-rule="evenodd" d="M46.1994 126.936L97.9587 57.8228L100.539 65.6643L48.7794 134.777L46.1994 126.936Z" fill="#E4F400"/>
<path fill-rule="evenodd" clip-rule="evenodd" d="M72.2036 206.028L74.7836 213.869L126.543 144.756L123.963 136.914L72.2036 206.028Z" fill="#E4F400"/>
<path fill-rule="evenodd" clip-rule="evenodd" d="M61.8057 174.392L113.565 105.279L116.141 113.126L64.3817 182.239L61.8057 174.392Z" fill="#E4F400"/>
<path fill-rule="evenodd" clip-rule="evenodd" d="M51.4029 142.753L103.162 73.6399L105.738 81.487L53.9789 150.6L51.4029 142.753Z" fill="#E4F400"/>
<path fill-rule="evenodd" clip-rule="evenodd" d="M92.7596 42L41.0003 111.114L43.5803 118.955L95.3396 49.8415L92.7596 42Z" fill="#E4F400"/>
</svg>
