<svg width="198" height="48" viewBox="0 0 198 48" fill="none" xmlns="http://www.w3.org/2000/svg">
<path fill-rule="evenodd" clip-rule="evenodd" d="M14.614 47.2821C9.15528 47.4828 0.324995 44.1915 0.003894 37.4083C-0.317207 28.3773 19.3101 21.7546 25.6117 21.5539C22.8422 21.4736 16.4202 19.3865 16.2596 15.2924C15.9787 7.66629 31.8732 0 40.1817 0C44.1152 0 48.3698 2.7695 48.5303 6.38189C48.6106 8.66973 43.2723 13.2856 38.9374 15.172C38.7769 15.2523 38.3755 15.1319 38.5762 14.9312C41.7069 11.9209 45.6404 6.70299 45.5601 4.29473C45.52 2.97019 44.8778 2.04702 42.309 2.04702C34.2413 2.04702 20.153 10.8773 20.153 17.0986C20.153 18.383 22.2401 20.2294 28.3411 20.8314C29.7057 20.5505 34.4019 18.9851 36.6094 18.9851C37.2115 18.9851 37.7333 19.0654 37.7333 19.4266C37.7734 20.4301 36.0876 23.1594 33.4787 23.1594C31.0303 23.1594 28.9833 22.4369 27.6186 22.3165C13.6908 25.6078 3.77683 33.836 3.77683 40.3383C3.77683 42.5459 5.74358 44.3922 9.83762 44.3922C22.9626 44.3922 39.1381 31.1468 48.6106 22.4771C49.2126 21.9152 49.0922 22.758 48.8514 22.9989C40.7436 31.5883 25.3709 46.8808 14.614 47.2821ZM54.2299 20.5103C52.825 21.6743 44.0349 34.9198 45.7608 35.9232C45.9615 36.0436 46.1221 36.164 46.8847 35.8831C47.6874 35.562 49.012 34.5986 50.5773 33.1537C54.9925 29.0597 61.254 21.3532 61.9363 16.336C62.0166 15.6938 61.8159 15.0918 61.3744 14.5298C63.02 14.8911 64.8663 17.9817 64.8262 19.3463C64.7459 22.156 57.1198 30.0631 51.5406 34.5986C48.4902 37.1273 46.9248 37.9301 46.2826 37.8899C44.6771 37.8498 42.4695 35.6021 42.4294 33.6755C42.3893 32.1503 43.8342 28.6181 48.0487 21.6342C49.7344 18.8647 51.2597 16.9381 50.0154 16.4564C49.895 16.4564 50.2964 16.1353 51.5005 16.8979C52.5039 17.5 54.27 19.6674 54.27 20.3096C54.27 20.4301 54.27 20.4702 54.2299 20.5103ZM70.8067 19.5069C73.6163 17.7007 76.2654 16.4966 78.3125 16.4966C80.7608 16.4966 82.9684 18.9851 82.9684 21.0321C82.9684 23.039 73.0143 29.6617 65.6691 29.7019C64.1439 31.8291 63.5819 33.7156 63.5017 34.5585C63.4615 35.1606 63.903 35.4014 64.5452 35.4014C66.6725 35.4014 70.4053 33.5149 72.8537 32.1904C76.4661 30.2638 80.9615 27.4541 84.6943 24.3635C84.8549 24.2431 85.2563 24.5642 85.0957 24.7248C79.5969 30.5849 69.2815 38.0103 65.2677 38.0103C63.3411 38.0103 60.0498 34.9198 60.0097 32.953C59.9696 31.508 60.7322 29.742 61.9363 27.9358C63.9833 24.8853 67.6358 21.5539 70.8067 19.5069ZM80.1989 18.6239C76.9879 18.6239 70.5659 23.9622 66.512 28.6583C69.723 28.0161 73.8973 25.4874 76.6668 23.4404C79.5969 21.273 80.7207 19.547 80.7207 19.0654C80.7207 18.7041 80.4799 18.6239 80.1989 18.6239ZM104.603 20.8716C102.636 23.1996 101.231 24.6044 98.7024 28.0964C96.4547 31.1869 94.6485 33.9966 94.6083 34.8395C94.6083 34.9599 94.6485 35.0402 94.809 35.0402C95.6921 35.0402 102.355 29.5814 107.773 24.3636C108.054 24.0826 108.335 24.4037 108.135 24.6847C107.252 25.8085 105.124 28.297 102.716 30.7856C100.107 33.4347 95.371 38.0103 94.0866 38.0103C92.5613 38.0103 90.434 35.3613 90.5544 33.836C90.5544 33.7156 90.5946 33.5551 90.6347 33.4347C90.9157 32.6319 92.481 29.9828 95.8526 25.3269C97.7391 22.7179 100.87 18.945 100.87 18.8246C100.87 18.7443 100.79 18.7443 100.79 18.7443C100.509 18.7443 96.0934 20.8314 91.1966 25.4874C87.3434 29.1399 80.5602 35.9232 80.9214 37.1675C80.9615 37.2477 81.0017 37.328 81.082 37.328C81.4432 37.4484 81.0017 37.7294 80.5602 37.6491C80.1187 37.5688 78.2322 35.1606 78.4329 33.9564C78.8343 31.7087 84.4134 24.9656 87.5843 20.109C88.5877 18.5436 89.1496 17.0184 88.4271 16.6571C88.387 16.6571 88.7483 16.336 89.7517 17.1789C90.5544 17.8613 91.879 19.7879 91.8389 20.3498C91.8389 21.1525 87.4638 26.4507 84.2528 30.9461C86.0189 28.8188 88.3067 26.4908 90.3538 24.484C92.0395 22.8383 99.3847 16.4564 101.151 16.4564C101.673 16.4564 102.154 16.8578 102.596 17.2993C103.479 18.2225 104.723 20.1491 104.683 20.6307C104.683 20.711 104.643 20.7913 104.603 20.8716ZM114.236 21.5941C113.995 21.9152 105.767 33.1537 105.767 34.8395C105.767 34.9599 105.807 35.0402 105.967 35.0402C106.81 35.0402 113.593 29.5413 118.932 24.3635C119.213 24.0826 119.534 24.3635 119.333 24.6445C118.45 25.8085 116.523 28.0161 113.874 30.7856C111.225 33.5551 106.449 38.0103 105.245 38.0103C104.683 38.0103 104.081 37.6892 103.479 37.1675C102.515 36.3246 101.713 35.2007 101.753 34.4381C101.753 34.2374 101.833 33.9966 101.913 33.7959C102.716 31.6686 106.208 26.3704 109.66 21.5941L116.122 12.4828C113.674 13.2053 111.948 13.9278 111.546 14.3291C111.065 14.8509 112.229 15.6135 112.911 15.9748C113.072 16.0551 112.951 16.1755 112.831 16.1755C110.944 16.0149 109.58 15.0115 109.459 14.6101C108.817 12.7638 110.944 11.2385 111.587 10.9977C113.593 10.1548 115.761 9.75345 118.129 9.55276C119.012 8.22822 119.735 7.06423 120.256 6.10092C121.139 4.45528 121.501 3.13074 120.778 2.7695C120.738 2.7695 121.099 2.4484 122.103 3.29129C122.905 3.97363 124.591 6.38189 124.551 6.94381C124.551 7.02409 124.511 7.10436 124.471 7.18464L122.865 9.43235H123.226C128.244 9.43235 136.111 10.195 138.077 11.1583C138.198 11.1984 138.077 11.2787 138.037 11.2787C135.147 10.9576 130.933 11.078 126.438 11.2385C124.872 11.2787 123.106 11.3991 121.3 11.6399L114.236 21.5941ZM121.581 25.3269C121.581 25.9691 124.11 26.5711 124.712 26.8119C130.853 24.6847 135.549 24.0826 138.238 23.6812C138.559 23.6411 138.479 23.9622 138.278 24.0424C136.071 24.7649 132.137 25.4874 126.799 27.695C128.645 28.4977 130.21 29.4209 130.21 30.5849C130.21 31.5482 129.849 32.6319 128.043 34.117C124.993 36.445 120.216 38.492 116.524 38.492C114.276 38.492 111.667 35.8028 112.028 34.398C112.429 32.9129 115.841 30.3842 119.855 28.7386C121.059 28.2168 122.263 27.7752 123.387 27.2936C121.099 26.4908 118.651 25.6881 118.651 23.8418C118.651 20.5103 126.718 16.2557 131.294 16.2557C133.702 16.2557 135.629 18.6239 135.589 19.7477C135.549 21.6342 131.455 22.9989 130.371 23.2798C130.13 23.3601 130.01 23.1193 130.13 22.9989C130.853 22.2764 133.943 19.7879 133.863 18.9048C133.863 18.7443 133.702 18.5436 133.181 18.5436C129.167 18.5436 121.581 23.4404 121.581 25.3269ZM127.04 29.4209C127.321 28.7787 126.598 28.4977 125.675 28.1766C124.27 28.7787 122.785 29.461 121.26 30.2638C116.403 32.7925 113.794 35.4014 113.794 36.2042C113.794 36.3246 113.955 36.3246 114.115 36.3246C115.841 36.3246 120.256 34.1571 123.467 32.2707C125.233 31.2672 126.759 30.1434 127.04 29.4209ZM158.106 20.8716C158.106 20.8716 157.343 21.6743 156.42 22.8383C152.848 27.2133 148.313 33.9966 148.272 34.8395C148.272 34.9599 148.313 35.0402 148.473 35.0402C149.316 35.0402 156.099 29.5413 161.438 24.3636C161.718 24.0826 162.04 24.3636 161.839 24.6445C160.956 25.8085 159.029 28.0161 156.38 30.7856C153.731 33.5551 148.955 38.0103 147.751 38.0103C146.225 38.0103 144.299 35.3613 144.299 33.836C144.299 32.5516 147.51 28.2569 149.517 25.4874C144.861 30.5046 137.957 36.7259 135.629 37.9301C135.509 37.9702 135.468 37.9702 135.428 37.9702C134.666 37.9702 133.863 37.4484 133.14 36.6457C132.177 35.562 131.455 34.3578 131.455 33.234C131.455 31.7489 136.231 25.6078 140.486 20.0287C141.128 19.1858 141.81 18.1021 141.971 17.4599C142.091 16.8979 141.73 16.6571 141.329 16.5768C141.409 16.5367 142.131 16.2557 143.095 17.1388C144.78 18.664 145.021 20.3498 144.981 20.9117C144.981 20.992 144.941 21.0723 144.901 21.1525C144.901 21.1525 142.051 24.3636 140.526 26.25C137.395 30.1434 135.147 33.7156 135.147 34.5184C135.147 34.6789 135.228 34.9198 135.468 34.9198C136.833 34.9198 150.48 23.9622 153.49 20.1892C154.132 19.3865 154.975 18.1824 154.895 17.1388C154.895 16.8177 154.775 16.617 154.534 16.4966C154.494 16.4966 155.296 16.336 156.26 17.219C157.785 18.6239 158.227 20.0688 158.186 20.6307C158.186 20.711 158.146 20.7913 158.106 20.8716ZM167.739 24.3234C163.485 27.8957 160.394 31.7489 158.748 34.7993C157.986 36.2042 157.745 37.1273 157.865 37.328C158.146 37.5688 157.785 37.7294 157.343 37.6491C156.902 37.5688 154.735 35.1606 155.136 33.9564C155.377 33.234 155.899 32.3108 156.661 31.1468L158.748 28.0562C160.394 25.648 163.204 21.6342 164.207 20.109C165.21 18.5436 165.772 17.0184 165.05 16.6571C165.01 16.6571 165.371 16.336 166.374 17.1789C167.177 17.8612 168.582 19.7879 168.542 20.3498C168.542 20.8314 166.816 23.0791 164.769 25.8085C165.772 24.6847 166.856 23.6009 168.02 22.5172C170.308 20.4702 175.044 16.4163 176.931 16.0149C177.774 15.8544 179.138 17.6204 179.018 19.547C178.978 20.0688 178.777 21.3131 178.215 21.8349C178.255 21.4335 178.095 20.992 177.854 20.6307C177.533 20.1892 176.69 19.7879 175.606 19.9083C173.158 20.1892 170.669 21.8349 167.739 24.3234ZM183.674 19.5069C186.483 17.7007 189.133 16.4966 191.18 16.4966C193.628 16.4966 195.836 18.9851 195.836 21.0321C195.836 23.039 185.881 29.6617 178.536 29.7019C177.011 31.8291 176.449 33.7156 176.369 34.5585C176.329 35.1606 176.77 35.4014 177.412 35.4014C179.54 35.4014 183.272 33.5149 185.721 32.1904C189.333 30.2638 193.829 27.4541 197.561 24.3635C197.722 24.2431 198.123 24.5642 197.963 24.7248C192.464 30.5849 182.149 38.0103 178.135 38.0103C176.208 38.0103 172.917 34.9198 172.877 32.953C172.837 31.508 173.599 29.742 174.803 27.9358C176.85 24.8853 180.503 21.5539 183.674 19.5069ZM193.066 18.6239C189.855 18.6239 183.433 23.9622 179.379 28.6583C182.59 28.0161 186.764 25.4874 189.534 23.4404C192.464 21.273 193.588 19.547 193.588 19.0654C193.588 18.7041 193.347 18.6239 193.066 18.6239Z" fill="#004BBB"/>
</svg>
