<svg width="170" height="306" viewBox="0 0 170 306" fill="none" xmlns="http://www.w3.org/2000/svg">
<path fill-rule="evenodd" clip-rule="evenodd" d="M238.231 170.827L50.1511 106.685L43.2859 248.302L195.795 275.859L238.231 170.827ZM58.8882 119.894L226.401 177.022L190.886 264.925L53.0647 240.022L58.8882 119.894Z" fill="#E4F400"/>
<path fill-rule="evenodd" clip-rule="evenodd" d="M159.633 96.5003C159.633 100.09 156.723 103.001 153.133 103.001C149.543 103.001 146.633 100.09 146.633 96.5003C146.633 92.9107 149.543 90 153.133 90C156.723 90 159.633 92.9107 159.633 96.5003Z" fill="#DC317F"/>
<path fill-rule="evenodd" clip-rule="evenodd" d="M146.286 11.643C146.286 18.073 141.073 23.286 134.643 23.286C128.213 23.286 123 18.073 123 11.643C123 5.213 128.213 0 134.643 0C141.073 0 146.286 5.213 146.286 11.643Z" fill="#F60000"/>
<path fill-rule="evenodd" clip-rule="evenodd" d="M62.406 41.86L56.3687 47.4899L50.7388 41.4526L44.493 47.2768L50.1229 53.3142L44.0856 58.9441L49.9099 65.1898L55.9472 59.5599L61.5771 65.5973L67.8228 59.773L62.1929 53.7357L68.2303 48.1058L62.406 41.86Z" fill="#0063F7"/>
</svg>
