<svg width="244" height="59" viewBox="0 0 244 59" fill="none" xmlns="http://www.w3.org/2000/svg">
<path fill-rule="evenodd" clip-rule="evenodd" d="M18.1631 58.8154C11.4677 59.0615 0.636934 55.0246 0.243088 46.7046C-0.150758 35.6277 23.9231 27.5046 31.6523 27.2585C28.2554 27.16 20.3785 24.6 20.1815 19.5785C19.8369 10.2246 39.3323 0.821548 49.5231 0.821548C54.3477 0.821548 59.5661 4.21847 59.7631 8.64924C59.8615 11.4554 53.3138 17.1169 47.9969 19.4308C47.8 19.5292 47.3077 19.3815 47.5538 19.1354C51.3938 15.4431 56.2185 9.04308 56.12 6.08924C56.0708 4.46462 55.2831 3.33232 52.1323 3.33232C42.2369 3.33232 24.9569 14.1631 24.9569 21.7938C24.9569 23.3692 27.5169 25.6339 35 26.3723C36.6738 26.0277 42.4338 24.1077 45.1415 24.1077C45.88 24.1077 46.52 24.2062 46.52 24.6492C46.5692 25.88 44.5015 29.2277 41.3015 29.2277C38.2985 29.2277 35.7877 28.3415 34.1138 28.1938C17.0308 32.2308 4.87078 42.3231 4.87078 50.2985C4.87078 53.0061 7.28309 55.2708 12.3046 55.2708C28.4031 55.2708 48.2431 39.0246 59.8615 28.3908C60.6 27.7015 60.4523 28.7354 60.1569 29.0308C50.2123 39.5662 31.3569 58.3231 18.1631 58.8154ZM66.7539 25.9785C65.0308 27.4062 54.2492 43.6523 56.3662 44.8831C56.6123 45.0308 56.8092 45.1785 57.7446 44.8338C58.7292 44.44 60.3539 43.2585 62.2739 41.4862C67.6892 36.4646 75.3692 27.0123 76.2062 20.8585C76.3046 20.0708 76.0585 19.3323 75.5169 18.6431C77.5354 19.0862 79.8 22.8769 79.7508 24.5508C79.6523 27.9969 70.2985 37.6954 63.4554 43.2585C59.7139 46.36 57.7939 47.3446 57.0062 47.2954C55.0369 47.2462 52.3292 44.4892 52.28 42.1262C52.2308 40.2554 54.0031 35.9231 59.1723 27.3569C61.24 23.96 63.1108 21.5969 61.5846 21.0062C61.4369 21.0062 61.9292 20.6123 63.4062 21.5477C64.6369 22.2862 66.8031 24.9446 66.8031 25.7323C66.8031 25.88 66.8031 25.9292 66.7539 25.9785ZM87.0862 24.7477C90.5323 22.5323 93.7815 21.0554 96.2923 21.0554C99.2954 21.0554 102.003 24.1077 102.003 26.6185C102.003 29.08 89.7938 37.2031 80.7846 37.2523C78.9139 39.8615 78.2246 42.1754 78.1262 43.2092C78.0769 43.9477 78.6185 44.2431 79.4062 44.2431C82.0154 44.2431 86.5938 41.9292 89.5969 40.3046C94.0277 37.9415 99.5415 34.4954 104.12 30.7046C104.317 30.5569 104.809 30.9508 104.612 31.1477C97.8677 38.3354 85.2154 47.4431 80.2923 47.4431C77.9292 47.4431 73.8923 43.6523 73.8431 41.24C73.7939 39.4677 74.7292 37.3015 76.2062 35.0862C78.7169 31.3446 83.1969 27.2585 87.0862 24.7477ZM98.6062 23.6646C94.6677 23.6646 86.7908 30.2123 81.8185 35.9723C85.7569 35.1846 90.8769 32.0831 94.2739 29.5723C97.8677 26.9138 99.2462 24.7969 99.2462 24.2062C99.2462 23.7631 98.9508 23.6646 98.6062 23.6646ZM128.538 26.4215C126.126 29.2769 124.403 31 121.302 35.2831C118.545 39.0738 116.329 42.52 116.28 43.5538C116.28 43.7015 116.329 43.8 116.526 43.8C117.609 43.8 125.782 37.1046 132.428 30.7046C132.772 30.36 133.117 30.7538 132.871 31.0985C131.788 32.4769 129.178 35.5292 126.225 38.5815C123.025 41.8308 117.215 47.4431 115.64 47.4431C113.769 47.4431 111.16 44.1938 111.308 42.3231C111.308 42.1754 111.357 41.9785 111.406 41.8308C111.751 40.8462 113.671 37.5969 117.806 31.8862C120.12 28.6862 123.96 24.0585 123.96 23.9108C123.96 23.8123 123.862 23.8123 123.862 23.8123C123.517 23.8123 118.102 26.3723 112.095 32.0831C107.369 36.5631 99.0492 44.8831 99.4923 46.4092C99.5415 46.5077 99.5908 46.6061 99.6892 46.6061C100.132 46.7538 99.5908 47.0985 99.0492 47C98.5077 46.9015 96.1939 43.9477 96.44 42.4708C96.9323 39.7138 103.775 31.4431 107.665 25.4862C108.895 23.5662 109.585 21.6954 108.698 21.2523C108.649 21.2523 109.092 20.8585 110.323 21.8923C111.308 22.7292 112.932 25.0923 112.883 25.7815C112.883 26.7662 107.517 33.2646 103.578 38.7785C105.745 36.1692 108.551 33.3138 111.062 30.8523C113.129 28.8338 122.138 21.0062 124.305 21.0062C124.945 21.0062 125.535 21.4985 126.077 22.04C127.16 23.1723 128.686 25.5354 128.637 26.1262C128.637 26.2246 128.588 26.3231 128.538 26.4215ZM140.354 27.3077C140.058 27.7015 129.966 41.4861 129.966 43.5538C129.966 43.7015 130.015 43.8 130.212 43.8C131.246 43.8 139.566 37.0554 146.114 30.7046C146.458 30.36 146.852 30.7046 146.606 31.0492C145.523 32.4769 143.16 35.1846 139.911 38.5815C136.662 41.9785 130.803 47.4431 129.326 47.4431C128.637 47.4431 127.898 47.0492 127.16 46.4092C125.978 45.3754 124.994 43.9969 125.043 43.0615C125.043 42.8154 125.142 42.52 125.24 42.2738C126.225 39.6646 130.508 33.1662 134.742 27.3077L142.668 16.1323C139.665 17.0185 137.548 17.9046 137.055 18.3969C136.465 19.0369 137.892 19.9723 138.729 20.4154C138.926 20.5139 138.778 20.6615 138.631 20.6615C136.317 20.4646 134.643 19.2339 134.495 18.7415C133.708 16.4769 136.317 14.6062 137.105 14.3108C139.566 13.2769 142.225 12.7846 145.129 12.5385C146.212 10.9139 147.098 9.48616 147.738 8.30462C148.822 6.28616 149.265 4.66155 148.378 4.21847C148.329 4.21847 148.772 3.82462 150.003 4.85847C150.988 5.69539 153.055 8.64924 153.006 9.33847C153.006 9.43693 152.957 9.53539 152.908 9.63385L150.938 12.3908H151.382C157.535 12.3908 167.185 13.3262 169.597 14.5077C169.745 14.5569 169.597 14.6554 169.548 14.6554C166.003 14.2615 160.834 14.4092 155.32 14.6062C153.4 14.6554 151.234 14.8031 149.018 15.0985L140.354 27.3077ZM149.363 31.8862C149.363 32.6738 152.465 33.4123 153.203 33.7077C160.735 31.0985 166.495 30.36 169.794 29.8677C170.188 29.8185 170.089 30.2123 169.843 30.3108C167.135 31.1969 162.311 32.0831 155.763 34.7908C158.028 35.7754 159.948 36.9077 159.948 38.3354C159.948 39.5169 159.505 40.8462 157.289 42.6677C153.548 45.5231 147.689 48.0338 143.16 48.0338C140.403 48.0338 137.203 44.7354 137.646 43.0123C138.138 41.1908 142.323 38.0892 147.246 36.0708C148.723 35.4308 150.2 34.8892 151.578 34.2985C148.772 33.3138 145.769 32.3292 145.769 30.0646C145.769 25.9785 155.665 20.76 161.277 20.76C164.231 20.76 166.594 23.6646 166.545 25.0431C166.495 27.3569 161.474 29.0308 160.145 29.3754C159.849 29.4738 159.702 29.1785 159.849 29.0308C160.735 28.1446 164.526 25.0923 164.428 24.0092C164.428 23.8123 164.231 23.5662 163.591 23.5662C158.668 23.5662 149.363 29.5723 149.363 31.8862ZM156.058 36.9077C156.403 36.12 155.517 35.7754 154.385 35.3815C152.662 36.12 150.84 36.9569 148.969 37.9415C143.012 41.0431 139.812 44.2431 139.812 45.2277C139.812 45.3754 140.009 45.3754 140.206 45.3754C142.323 45.3754 147.738 42.7169 151.677 40.4031C153.843 39.1723 155.714 37.7938 156.058 36.9077ZM194.163 26.4215C194.163 26.4215 193.228 27.4062 192.095 28.8338C187.714 34.2 182.151 42.52 182.102 43.5538C182.102 43.7015 182.151 43.8 182.348 43.8C183.382 43.8 191.702 37.0554 198.249 30.7046C198.594 30.36 198.988 30.7046 198.742 31.0492C197.658 32.4769 195.295 35.1846 192.046 38.5815C188.797 41.9785 182.938 47.4431 181.462 47.4431C179.591 47.4431 177.228 44.1938 177.228 42.3231C177.228 40.7477 181.166 35.48 183.628 32.0831C177.917 38.2369 169.449 45.8677 166.594 47.3446C166.446 47.3938 166.397 47.3938 166.348 47.3938C165.412 47.3938 164.428 46.7538 163.542 45.7692C162.36 44.44 161.474 42.9631 161.474 41.5846C161.474 39.7631 167.332 32.2308 172.551 25.3877C173.338 24.3538 174.175 23.0246 174.372 22.2369C174.52 21.5477 174.077 21.2523 173.585 21.1539C173.683 21.1046 174.569 20.76 175.751 21.8431C177.818 23.7139 178.114 25.7815 178.065 26.4708C178.065 26.5692 178.015 26.6677 177.966 26.7662C177.966 26.7662 174.471 30.7046 172.6 33.0185C168.76 37.7938 166.003 42.1754 166.003 43.16C166.003 43.3569 166.102 43.6523 166.397 43.6523C168.071 43.6523 184.809 30.2123 188.502 25.5846C189.289 24.6 190.323 23.1231 190.225 21.8431C190.225 21.4492 190.077 21.2031 189.782 21.0554C189.732 21.0554 190.717 20.8585 191.898 21.9415C193.769 23.6646 194.311 25.4369 194.262 26.1262C194.262 26.2246 194.212 26.3231 194.163 26.4215ZM205.978 30.6554C200.76 35.0369 196.969 39.7631 194.951 43.5046C194.015 45.2277 193.72 46.36 193.868 46.6061C194.212 46.9015 193.769 47.0985 193.228 47C192.686 46.9015 190.028 43.9477 190.52 42.4708C190.815 41.5846 191.455 40.4523 192.391 39.0246L194.951 35.2338C196.969 32.28 200.415 27.3569 201.646 25.4862C202.877 23.5662 203.566 21.6954 202.68 21.2523C202.631 21.2523 203.074 20.8585 204.305 21.8923C205.289 22.7292 207.012 25.0923 206.963 25.7815C206.963 26.3723 204.846 29.1292 202.335 32.4769C203.566 31.0985 204.895 29.7692 206.323 28.44C209.129 25.9292 214.938 20.9569 217.252 20.4646C218.286 20.2677 219.96 22.4338 219.812 24.7969C219.763 25.4369 219.517 26.9631 218.828 27.6031C218.877 27.1108 218.68 26.5692 218.385 26.1262C217.991 25.5846 216.957 25.0923 215.628 25.24C212.625 25.5846 209.572 27.6031 205.978 30.6554ZM225.523 24.7477C228.969 22.5323 232.218 21.0554 234.729 21.0554C237.732 21.0554 240.44 24.1077 240.44 26.6185C240.44 29.08 228.231 37.2031 219.222 37.2523C217.351 39.8615 216.662 42.1754 216.563 43.2092C216.514 43.9477 217.055 44.2431 217.843 44.2431C220.452 44.2431 225.031 41.9292 228.034 40.3046C232.465 37.9415 237.978 34.4954 242.557 30.7046C242.754 30.5569 243.246 30.9508 243.049 31.1477C236.305 38.3354 223.652 47.4431 218.729 47.4431C216.366 47.4431 212.329 43.6523 212.28 41.24C212.231 39.4677 213.166 37.3015 214.643 35.0862C217.154 31.3446 221.634 27.2585 225.523 24.7477ZM237.043 23.6646C233.105 23.6646 225.228 30.2123 220.255 35.9723C224.194 35.1846 229.314 32.0831 232.711 29.5723C236.305 26.9138 237.683 24.7969 237.683 24.2062C237.683 23.7631 237.388 23.6646 237.043 23.6646Z" fill="#004BBB"/>
</svg>
