<svg width="244" height="131" viewBox="0 0 244 131" fill="none" xmlns="http://www.w3.org/2000/svg">
<path fill-rule="evenodd" clip-rule="evenodd" d="M173.786 19L146 67L223.025 53.2653L173.786 19Z" fill="#0063F7"/>
<path fill-rule="evenodd" clip-rule="evenodd" d="M243.746 0L215 6.45972L229.44 14.8305L243.746 0Z" fill="#F60000"/>
<path fill-rule="evenodd" clip-rule="evenodd" d="M63.2027 11.4986C63.2027 14.8259 60.6081 17.5234 57.4077 17.5234C54.2074 17.5234 51.6128 14.8259 51.6128 11.4986C51.6128 8.1713 54.2074 5.47375 57.4077 5.47375C60.6081 5.47375 63.2027 8.1713 63.2027 11.4986Z" fill="#F60000"/>
<path fill-rule="evenodd" clip-rule="evenodd" d="M12.6706 35.8338H8.56193V31.5621H4.3114V35.8338H0.202728V40.253H4.3114V44.5246H8.56193V40.253H12.6706V35.8338Z" fill="#0063F7"/>
<path fill-rule="evenodd" clip-rule="evenodd" d="M32 118.681C32 125.308 37.3726 130.681 44 130.681H167.572C174.2 130.681 179.572 125.308 179.572 118.681V36C179.572 29.3726 174.2 24 167.572 24H44C37.3726 24 32 29.3726 32 36V118.681Z" fill="#49C5E3"/>
<path fill-rule="evenodd" clip-rule="evenodd" d="M32 118.681C32 125.308 37.3726 130.681 44 130.681H83.2662L108.931 24L44 24C37.3726 24 32 29.3726 32 36V118.681Z" fill="#89DCF0"/>
<path fill-rule="evenodd" clip-rule="evenodd" d="M157.151 64.0617H52.7873C50.4245 64.0617 48.5099 62.1451 48.5099 59.7817V52.5819C48.5099 50.2185 50.4245 48.3019 52.7873 48.3019H157.151C159.513 48.3019 161.429 50.2185 161.429 52.5819V59.7817C161.429 62.1451 159.513 64.0617 157.151 64.0617Z" fill="#FEFEFE"/>
<path fill-rule="evenodd" clip-rule="evenodd" d="M52.7866 49.5861C51.1355 49.5861 49.7924 50.93 49.7924 52.5821V59.7819C49.7924 61.4331 51.1355 62.7779 52.7866 62.7779H157.151C158.803 62.7779 160.146 61.4331 160.146 59.7819V52.5821C160.146 50.93 158.803 49.5861 157.151 49.5861H52.7866ZM157.151 65.3459H52.7866C49.7206 65.3459 47.226 62.8498 47.226 59.7819V52.5821C47.226 49.5142 49.7206 47.0181 52.7866 47.0181H157.151C160.218 47.0181 162.712 49.5142 162.712 52.5821V59.7819C162.712 62.8498 160.218 65.3459 157.151 65.3459Z" fill="#0D929F"/>
<path fill-rule="evenodd" clip-rule="evenodd" d="M157.151 88.4476H52.7873C50.4245 88.4476 48.5099 86.531 48.5099 84.1676V76.9677C48.5099 74.6043 50.4245 72.6877 52.7873 72.6877H157.151C159.513 72.6877 161.429 74.6043 161.429 76.9677V84.1676C161.429 86.531 159.513 88.4476 157.151 88.4476Z" fill="#F5BF3A"/>
<path fill-rule="evenodd" clip-rule="evenodd" d="M52.7866 73.9721C51.1355 73.9721 49.7924 75.316 49.7924 76.9681V84.1679C49.7924 85.8191 51.1355 87.1639 52.7866 87.1639H157.151C158.803 87.1639 160.146 85.8191 160.146 84.1679V76.9681C160.146 75.316 158.803 73.9721 157.151 73.9721H52.7866ZM157.151 89.7319H52.7866C49.7206 89.7319 47.226 87.2358 47.226 84.1679V76.9681C47.226 73.9001 49.7206 71.4041 52.7866 71.4041H157.151C160.218 71.4041 162.712 73.9001 162.712 76.9681V84.1679C162.712 87.2358 160.218 89.7319 157.151 89.7319Z" fill="#F5BF3A"/>
<path fill-rule="evenodd" clip-rule="evenodd" d="M53.0605 58.9641H104.327V53.4001H53.0605V58.9641Z" fill="#0063F7"/>
<path fill-rule="evenodd" clip-rule="evenodd" d="M145.839 24V26.568H169.751C173.751 26.568 177.005 29.8242 177.005 33.8269V120.853C177.005 124.856 173.751 128.113 169.751 128.113H69.1407V130.681H169.751C175.166 130.681 179.572 126.272 179.572 120.853V33.8269C179.572 28.4084 175.166 24 169.751 24H145.839Z" fill="#0D929F"/>
<path fill-rule="evenodd" clip-rule="evenodd" d="M34.5665 33.8274C34.5665 29.8247 37.8216 26.5685 41.821 26.5685H138.749V24.0005H41.821C36.4058 24.0005 32 28.408 32 33.8274V120.853C32 126.273 36.4058 130.68 41.821 130.68H50.5154V128.112H41.821C37.8216 128.112 34.5665 124.856 34.5665 120.853V33.8274Z" fill="#0D929F"/>
<path fill-rule="evenodd" clip-rule="evenodd" d="M125.375 111.316C123.013 111.316 121.098 109.4 121.098 107.036V99.8363C121.098 97.4729 123.013 95.5563 125.375 95.5563H157.424C159.786 95.5563 161.702 97.4729 161.702 99.8363V107.036C161.702 109.4 159.786 111.316 157.424 111.316H125.375Z" fill="#0063F7"/>
<path fill-rule="evenodd" clip-rule="evenodd" d="M60.5237 80.5677C60.5237 82.6298 58.853 84.3016 56.7921 84.3016C54.7312 84.3016 53.0604 82.6298 53.0604 80.5677C53.0604 78.5056 54.7312 76.8339 56.7921 76.8339C58.853 76.8339 60.5237 78.5056 60.5237 80.5677Z" fill="#E01F26"/>
<path fill-rule="evenodd" clip-rule="evenodd" d="M72.7703 80.5677C72.7703 82.6298 71.0995 84.3016 69.0387 84.3016C66.9778 84.3016 65.307 82.6298 65.307 80.5677C65.307 78.5056 66.9778 76.8339 69.0387 76.8339C71.0995 76.8339 72.7703 78.5056 72.7703 80.5677Z" fill="#E01F26"/>
<path fill-rule="evenodd" clip-rule="evenodd" d="M85.017 80.5677C85.017 82.6298 83.3462 84.3016 81.2853 84.3016C79.2244 84.3016 77.5536 82.6298 77.5536 80.5677C77.5536 78.5056 79.2244 76.8339 81.2853 76.8339C83.3462 76.8339 85.017 78.5056 85.017 80.5677Z" fill="#E01F26"/>
<path fill-rule="evenodd" clip-rule="evenodd" d="M97.2635 80.5677C97.2635 82.6298 95.5928 84.3016 93.5319 84.3016C91.471 84.3016 89.8002 82.6298 89.8002 80.5677C89.8002 78.5056 91.471 76.8339 93.5319 76.8339C95.5928 76.8339 97.2635 78.5056 97.2635 80.5677Z" fill="#E01F26"/>
</svg>
