<svg width="243" height="126" viewBox="0 0 243 126" fill="none" xmlns="http://www.w3.org/2000/svg">
<path fill-rule="evenodd" clip-rule="evenodd" d="M201.831 96.2892L191 115L221.025 109.646L201.831 96.2892Z" fill="#0063F7"/>
<path fill-rule="evenodd" clip-rule="evenodd" d="M242.746 34L214 40.4597L228.44 48.8305L242.746 34Z" fill="#F60000"/>
<path fill-rule="evenodd" clip-rule="evenodd" d="M57.4704 94.3637C57.4704 96.2212 56.022 97.7274 54.235 97.7274C52.4484 97.7274 51 96.2212 51 94.3637C51 92.5062 52.4484 91 54.235 91C56.022 91 57.4704 92.5062 57.4704 94.3637Z" fill="#DC317F"/>
<path fill-rule="evenodd" clip-rule="evenodd" d="M62.5899 46.0248C62.5899 49.3521 59.9953 52.0497 56.7949 52.0497C53.5946 52.0497 51 49.3521 51 46.0248C51 42.6975 53.5946 40 56.7949 40C59.9953 40 62.5899 42.6975 62.5899 46.0248Z" fill="#F60000"/>
<path fill-rule="evenodd" clip-rule="evenodd" d="M12.4679 70.2717H8.3592V66H4.10868V70.2717H0V74.6908H4.10868V78.9625H8.3592V74.6908H12.4679V70.2717Z" fill="#0063F7"/>
<path fill-rule="evenodd" clip-rule="evenodd" d="M94.2793 15.5543L89.7093 8.07026C88.4663 6.03326 85.8063 5.39026 83.7693 6.63326L68.0653 16.2213C70.1723 20.1223 68.8893 25.0303 65.0613 27.3673C61.2333 29.7053 56.2803 28.6043 53.7733 24.9483L38.0703 34.5363C36.0333 35.7793 35.3903 38.4393 36.6333 40.4763L41.2033 47.9603C42.4473 49.9983 45.1073 50.6413 47.1443 49.3973C45.1073 50.6413 44.4633 53.3003 45.7073 55.3373L81.0633 113.244C82.3073 115.281 84.9673 115.924 87.0043 114.68L102.688 105.104C100.272 101.147 101.521 95.9803 105.478 93.5643C109.435 91.1483 114.602 92.3973 117.018 96.3543L132.703 86.7783C134.74 85.5343 135.383 82.8753 134.139 80.8373L98.7833 22.9313C97.5393 20.8943 94.8803 20.2513 92.8433 21.4953C94.8803 20.2513 95.5233 17.5913 94.2793 15.5543Z" fill="#F5A6B6"/>
<path fill-rule="evenodd" clip-rule="evenodd" d="M108.773 82.131L101.786 86.397L84 57.265L90.986 53L108.773 82.131Z" fill="#D8666E"/>
<path fill-rule="evenodd" clip-rule="evenodd" d="M56.155 45.2283L50.514 48.6723L48.951 46.1123L54.592 42.6683L56.155 45.2283Z" fill="#E01F26"/>
<path fill-rule="evenodd" clip-rule="evenodd" d="M64.9151 39.8797L59.2731 43.3237L57.7111 40.7637L63.3521 37.3197L64.9151 39.8797Z" fill="#E01F26"/>
<path fill-rule="evenodd" clip-rule="evenodd" d="M73.6745 34.5312L68.0335 37.9752L66.4705 35.4152L72.1115 31.9712L73.6745 34.5312Z" fill="#E01F26"/>
<path fill-rule="evenodd" clip-rule="evenodd" d="M82.4345 29.1826L76.7935 32.6276L75.2295 30.0676L80.8705 26.6226L82.4345 29.1826Z" fill="#E01F26"/>
<path fill-rule="evenodd" clip-rule="evenodd" d="M91.1941 23.835L85.5521 27.279L83.9901 24.719L89.6311 21.275L91.1941 23.835Z" fill="#E01F26"/>
<path fill-rule="evenodd" clip-rule="evenodd" d="M92.9599 79.082L81.3639 86.162L62.5319 55.318L74.1279 48.238L92.9599 79.082Z" fill="#E01F26"/>
<path fill-rule="evenodd" clip-rule="evenodd" d="M44.8956 55.4871L64.5026 87.6001L66.7156 86.2491L47.1086 54.1361C46.2396 52.7121 46.6906 50.8461 48.1146 49.9771L46.7626 47.7641C45.3396 48.6331 43.4736 48.1821 42.6046 46.7591L38.0346 39.2741C37.1656 37.8511 37.6166 35.9851 39.0406 35.1161L53.7606 26.1281C56.8326 29.5771 61.9926 30.4141 66.0316 27.9481C70.0696 25.4821 71.6836 20.5091 70.0186 16.2011L84.7396 7.21406C86.1626 6.34406 88.0286 6.79606 88.8976 8.21906L93.4676 15.7031C94.3366 17.1271 93.8856 18.9931 92.4616 19.8621L93.8136 22.0751C95.2366 21.2061 97.1026 21.6571 97.9716 23.0801L106.319 36.7511L108.532 35.4001L100.185 21.7291C99.2806 20.2481 97.7946 19.3331 96.1986 19.1001C96.7196 17.5731 96.5856 15.8341 95.6806 14.3521L91.1106 6.86806C89.4966 4.22406 86.0316 3.38606 83.3876 5.00006L66.6346 15.2291L67.2196 16.3121C69.0126 19.6311 67.8976 23.7701 64.6796 25.7351C61.4626 27.6991 57.2716 26.8001 55.1376 23.6881L54.4426 22.6741L37.6886 32.9031C35.0456 34.5171 34.2076 37.9821 35.8216 40.6261L40.3916 48.1101C41.2956 49.5921 42.7816 50.5061 44.3776 50.7401C43.8566 52.2661 43.9906 54.0051 44.8956 55.4871Z" fill="#E01F26"/>
<path fill-rule="evenodd" clip-rule="evenodd" d="M108.632 40.5401L133.328 80.9871C134.197 82.4101 133.746 84.2761 132.322 85.1451L117.67 94.0911C114.661 90.3831 109.283 89.3761 105.098 91.9311C100.912 94.4871 99.3499 99.7311 101.274 104.102L86.6229 113.048C85.1999 113.917 83.3339 113.466 82.4649 112.042L76.2049 101.789L73.9919 103.141L80.2519 113.393C81.8659 116.037 85.3299 116.875 87.9739 115.261L104.765 105.009L104.089 103.902C102.049 100.561 103.108 96.1841 106.449 94.1441C109.79 92.1051 114.167 93.1631 116.207 96.5041L116.882 97.6101L133.673 87.3581C136.317 85.7441 137.155 82.2801 135.541 79.6361L110.845 39.1891L108.632 40.5401Z" fill="#E01F26"/>
<path fill-rule="evenodd" clip-rule="evenodd" d="M68.579 89.3002L66.366 90.6512L71.03 98.2902L73.243 96.9382L68.579 89.3002Z" fill="#E01F26"/>
<path fill-rule="evenodd" clip-rule="evenodd" d="M94.596 83L83 90.08L86.661 96.076L98.257 88.996L94.596 83Z" fill="#D8666E"/>
<path fill-rule="evenodd" clip-rule="evenodd" d="M164.314 33.8187L167.227 25.5477C168.02 23.2967 166.838 20.8287 164.587 20.0357L147.233 13.9227C145.541 18.0207 140.926 20.1277 136.695 18.6377C132.465 17.1467 130.189 12.6127 131.439 8.35969L114.085 2.24669C111.833 1.45369 109.366 2.63569 108.573 4.88669L105.659 13.1577C104.866 15.4097 106.049 17.8767 108.3 18.6697C106.049 17.8767 103.581 19.0597 102.788 21.3107L80.2467 85.3037C79.4537 87.5547 80.6357 90.0227 82.8867 90.8157L100.22 96.9207C101.76 92.5477 106.554 90.2507 110.927 91.7917C115.301 93.3317 117.597 98.1257 116.057 102.499L133.389 108.605C135.641 109.398 138.108 108.215 138.901 105.964L161.442 41.9707C162.235 39.7197 161.053 37.2517 158.802 36.4587C161.053 37.2517 163.521 36.0697 164.314 33.8187Z" fill="#F5BF3A"/>
<path fill-rule="evenodd" clip-rule="evenodd" d="M117.234 23.025L111 20.829L111.997 18L118.231 20.196L117.234 23.025Z" fill="#C76815"/>
<path fill-rule="evenodd" clip-rule="evenodd" d="M127.234 26.026L121 23.83L121.997 21L128.231 23.197L127.234 26.026Z" fill="#C76815"/>
<path fill-rule="evenodd" clip-rule="evenodd" d="M136.234 30.025L130 27.829L130.997 25L137.231 27.196L136.234 30.025Z" fill="#C76815"/>
<path fill-rule="evenodd" clip-rule="evenodd" d="M146.235 33.025L140 30.83L140.997 28L147.231 30.195L146.235 33.025Z" fill="#C76815"/>
<path fill-rule="evenodd" clip-rule="evenodd" d="M156.234 36.026L150 33.83L150.997 31L157.231 33.197L156.234 36.026Z" fill="#C76815"/>
<path fill-rule="evenodd" clip-rule="evenodd" d="M113.815 72.6L101 68.086L113.006 34L125.821 38.514L113.815 72.6Z" fill="#C76815"/>
<path fill-rule="evenodd" clip-rule="evenodd" d="M121.721 86.913L114 84.193L125.34 52L133.061 54.72L121.721 86.913Z" fill="#C76815"/>
<path fill-rule="evenodd" clip-rule="evenodd" d="M102.343 20.5193L89.8418 56.0083L92.2878 56.8693L104.789 21.3803C105.343 19.8073 107.074 18.9783 108.647 19.5323L109.509 17.0863C107.935 16.5323 107.106 14.8013 107.66 13.2283L110.574 4.95726C111.128 3.38426 112.859 2.55526 114.432 3.10926L130.7 8.83926C129.967 13.3993 132.58 17.9273 137.043 19.4993C141.505 21.0713 146.38 19.1803 148.667 15.1683L164.935 20.8983C166.508 21.4523 167.337 23.1833 166.783 24.7563L163.869 33.0273C163.315 34.6003 161.584 35.4303 160.011 34.8763L159.15 37.3213C160.723 37.8753 161.552 39.6073 160.998 41.1803L155.676 56.2873L158.122 57.1493L163.443 42.0413C164.02 40.4043 163.79 38.6753 162.963 37.2903C164.476 36.7293 165.738 35.5263 166.315 33.8893L169.229 25.6183C170.258 22.6963 168.718 19.4813 165.796 18.4523L147.282 11.9313L146.813 13.0673C145.373 16.5553 141.46 18.3063 137.904 17.0543C134.349 15.8013 132.397 11.9853 133.461 8.36426L133.808 7.18426L115.294 0.663258C112.372 -0.365742 109.157 1.17426 108.128 4.09626L105.215 12.3673C104.638 14.0043 104.868 15.7333 105.696 17.1183C104.183 17.6793 102.92 18.8823 102.343 20.5193Z" fill="#D67927"/>
<path fill-rule="evenodd" clip-rule="evenodd" d="M153.719 61L137.974 105.698C137.42 107.271 135.689 108.101 134.116 107.546L117.924 101.843C118.897 97.168 116.28 92.363 111.654 90.734C107.028 89.104 101.977 91.208 99.8049 95.461L83.6139 89.757C82.0399 89.203 81.2109 87.472 81.7649 85.899L85.7559 74.569L83.3109 73.707L79.3199 85.038C78.2899 87.959 79.8299 91.174 82.7519 92.203L101.308 98.739L101.738 97.516C103.039 93.824 107.1 91.879 110.792 93.179C114.484 94.48 116.43 98.541 115.129 102.233L114.699 103.456L133.255 109.992C136.176 111.021 139.391 109.481 140.42 106.56L156.165 61.861L153.719 61Z" fill="#C76815"/>
<path fill-rule="evenodd" clip-rule="evenodd" d="M90.419 59.861L87.973 59L85 67.441L87.446 68.302L90.419 59.861Z" fill="#C76815"/>
<path fill-rule="evenodd" clip-rule="evenodd" d="M113.149 76.514L100.334 72L98 78.626L110.815 83.14L113.149 76.514Z" fill="#A6A736"/>
<path fill-rule="evenodd" clip-rule="evenodd" d="M197.424 91.1895L205.309 87.3515C207.455 86.3065 208.347 83.7205 207.303 81.5745L199.25 65.0305C195.167 66.7575 190.403 65.0145 188.44 60.9815C186.477 56.9485 188.043 52.1225 191.921 49.9745L183.868 33.4315C182.824 31.2855 180.237 30.3925 178.091 31.4365L170.207 35.2745C168.06 36.3195 167.168 38.9065 168.212 41.0525C167.168 38.9065 164.581 38.0135 162.435 39.0575L101.432 68.7525C99.2846 69.7975 98.3926 72.3835 99.4366 74.5295L107.48 91.0525C111.649 89.0235 116.674 90.7575 118.703 94.9265C120.732 99.0955 118.998 104.12 114.829 106.149L122.872 122.672C123.916 124.818 126.503 125.711 128.649 124.667L189.652 94.9725C191.798 93.9275 192.691 91.3415 191.647 89.1955C192.691 91.3415 195.278 92.2345 197.424 91.1895Z" fill="#49C5E3"/>
<path fill-rule="evenodd" clip-rule="evenodd" d="M170.893 50.255L168 44.312L170.698 43L173.59 48.943L170.893 50.255Z" fill="#0D929F"/>
<path fill-rule="evenodd" clip-rule="evenodd" d="M175.893 59.256L173 53.313L175.698 52L178.59 57.944L175.893 59.256Z" fill="#0D929F"/>
<path fill-rule="evenodd" clip-rule="evenodd" d="M179.893 68.255L177 62.312L179.698 61L182.59 66.943L179.893 68.255Z" fill="#0D929F"/>
<path fill-rule="evenodd" clip-rule="evenodd" d="M184.894 77.256L182 71.313L184.698 70L187.591 75.943L184.894 77.256Z" fill="#0D929F"/>
<path fill-rule="evenodd" clip-rule="evenodd" d="M188.893 86.256L186 80.313L188.698 79L191.59 84.944L188.893 86.256Z" fill="#0D929F"/>
<path fill-rule="evenodd" clip-rule="evenodd" d="M133.947 83.033L128 70.817L160.494 55L166.44 67.216L133.947 83.033Z" fill="#0D929F"/>
<path fill-rule="evenodd" clip-rule="evenodd" d="M129.583 98.299L126 90.939L156.69 76L160.272 83.36L129.583 98.299Z" fill="#18A9C0"/>
<mask id="mask0" mask-type="alpha" maskUnits="userSpaceOnUse" x="128" y="29" width="82" height="74">
<path fill-rule="evenodd" clip-rule="evenodd" d="M209.635 29.3058V102.75H128.637V29.3058H209.635V29.3058Z" fill="white"/>
</mask>
<g mask="url(#mask0)">
<path fill-rule="evenodd" clip-rule="evenodd" d="M162.468 37.4931L128.637 53.9611L129.772 56.2921L163.603 39.8241C165.103 39.0941 166.917 39.7211 167.647 41.2201L169.978 40.0861C169.248 38.5861 169.875 36.7721 171.374 36.0421L179.259 32.2041C180.759 31.4741 182.573 32.1001 183.303 33.6001L190.852 49.1071C187.126 51.8371 185.804 56.8951 187.875 61.1491C189.945 65.4041 194.742 67.4831 199.189 66.2351L206.738 81.7431C207.468 83.2421 206.841 85.0571 205.342 85.7871L197.457 89.6251C195.957 90.3551 194.143 89.7281 193.413 88.2291L191.082 89.3641C191.812 90.8631 191.185 92.6781 189.686 93.4081L175.284 100.418L176.419 102.75L190.82 95.7391C192.381 94.9791 193.432 93.5881 193.817 92.0211C195.287 92.6851 197.031 92.7161 198.592 91.9561L206.477 88.1181C209.262 86.7621 210.425 83.3931 209.069 80.6081L200.478 62.9591L199.345 63.4381C195.87 64.9081 191.856 63.4041 190.206 60.0141C188.556 56.6251 189.849 52.5381 193.15 50.7101L194.226 50.1141L185.635 32.4651C184.279 29.6791 180.91 28.5161 178.124 29.8721L170.24 33.7101C168.679 34.4701 167.628 35.8621 167.243 37.4291C165.773 36.7641 164.029 36.7331 162.468 37.4931Z" fill="#0D929F"/>
</g>
<mask id="mask1" mask-type="alpha" maskUnits="userSpaceOnUse" x="98" y="61" width="75" height="66">
<path fill-rule="evenodd" clip-rule="evenodd" d="M98.3059 126H172.427V61.9301H98.3059L98.3059 126Z" fill="white"/>
</mask>
<g mask="url(#mask1)">
<path fill-rule="evenodd" clip-rule="evenodd" d="M171.292 102.361L128.682 123.102C127.182 123.832 125.368 123.206 124.638 121.706L117.124 106.271C121.102 103.628 122.615 98.3701 120.469 93.9601C118.322 89.5501 113.25 87.4981 108.717 88.9981L101.203 73.5631C100.473 72.0631 101.1 70.2491 102.599 69.5191L113.4 64.2611L112.265 61.9301L101.464 67.1881C98.6793 68.5431 97.5163 71.9131 98.8723 74.6981L107.482 92.3871L108.648 91.8191C112.167 90.1061 116.424 91.5751 118.137 95.0951C119.851 98.6151 118.381 102.871 114.862 104.585L113.696 105.152L122.306 122.841C123.662 125.626 127.031 126.79 129.817 125.434L172.427 104.692L171.292 102.361Z" fill="#0D929F"/>
</g>
<path fill-rule="evenodd" clip-rule="evenodd" d="M126.182 58.331L125.047 56L117 59.917L118.135 62.248L126.182 58.331Z" fill="#0D929F"/>
<path fill-rule="evenodd" clip-rule="evenodd" d="M131.263 85.216L125.316 73L119 76.074L124.947 88.291L131.263 85.216Z" fill="#0D929F"/>
</svg>
