<svg width="183" height="118" viewBox="0 0 183 118" fill="none" xmlns="http://www.w3.org/2000/svg">
<path fill-rule="evenodd" clip-rule="evenodd" d="M18.6073 85.4153L8.02734 99.6386L25 92.4238L18.6073 85.4153Z" fill="#0063F7"/>
<path fill-rule="evenodd" clip-rule="evenodd" d="M122.272 66.3043L157.758 58.3864L156.289 61.5875L120.803 69.5054L122.272 66.3043Z" fill="#E4F400"/>
<path fill-rule="evenodd" clip-rule="evenodd" d="M128.2 53.3902L163.686 45.4723L162.218 48.6735L126.731 56.5913L128.2 53.3902Z" fill="#E4F400"/>
<path fill-rule="evenodd" clip-rule="evenodd" d="M134.129 40.4762L169.615 32.5583L168.146 35.7594L132.66 43.6773L134.129 40.4762Z" fill="#E4F400"/>
<path fill-rule="evenodd" clip-rule="evenodd" d="M119.308 72.7584L117.84 75.9595L153.326 68.0416L154.795 64.8403L119.308 72.7584Z" fill="#E4F400"/>
<path fill-rule="evenodd" clip-rule="evenodd" d="M125.237 59.847L160.724 51.9291L159.252 55.1309L123.766 63.0488L125.237 59.847Z" fill="#E4F400"/>
<path fill-rule="evenodd" clip-rule="evenodd" d="M131.166 46.9328L166.652 39.0149L165.181 42.2168L129.694 50.1346L131.166 46.9328Z" fill="#E4F400"/>
<path fill-rule="evenodd" clip-rule="evenodd" d="M172.581 26.1009L137.094 34.019L135.626 37.2201L171.112 29.302L172.581 26.1009Z" fill="#E4F400"/>
<path fill-rule="evenodd" clip-rule="evenodd" d="M87.5 116C118.152 116 143 91.1518 143 60.5C143 29.8482 118.152 5 87.5 5C56.8482 5 32 29.8482 32 60.5C32 91.1518 56.8482 116 87.5 116Z" fill="#D8D8D8" stroke="#1D9CA8" stroke-width="3"/>
<mask id="mask0" mask-type="alpha" maskUnits="userSpaceOnUse" x="32" y="6" width="111" height="110">
<path fill-rule="evenodd" clip-rule="evenodd" d="M32.8819 6.53149V115.873H142.109V6.53149H32.8819Z" fill="white"/>
</mask>
<g mask="url(#mask0)">
<path fill-rule="evenodd" clip-rule="evenodd" d="M142.109 61.2023C142.109 91.3963 117.658 115.873 87.4952 115.873C57.3328 115.873 32.8815 91.3963 32.8815 61.2023C32.8815 31.0084 57.3328 6.53149 87.4952 6.53149C117.658 6.53149 142.109 31.0084 142.109 61.2023Z" fill="#49C5E3"/>
</g>
<path fill-rule="evenodd" clip-rule="evenodd" d="M89.7768 85.115C93.3476 86.0896 93.0231 86.0896 94.9703 83.4906C95.9439 82.1903 94.9703 77.9669 95.6194 76.6665C96.593 74.7172 98.2165 72.768 96.593 71.4676C94.6458 69.5184 95.6194 69.5184 90.4259 69.8432C89.7768 69.8432 86.5306 68.5437 85.8815 67.2442L85.2325 65.2941C84.2589 62.6951 81.9871 64.9692 80.6881 63.02C76.4691 57.4962 79.0654 61.7205 72.8984 58.4708C70.6257 57.1713 69.3276 60.745 66.7313 64.9692C65.7577 66.5945 63.8096 65.9439 63.8096 68.2189C63.8096 73.4177 63.1605 72.4431 67.0558 75.367C68.6785 76.6665 67.0558 78.6166 68.6785 79.9161C73.5474 82.8409 72.2493 80.8908 74.1965 91.2885C74.1965 91.9383 73.5474 94.2133 73.2229 95.1879C72.5738 97.462 75.8192 97.462 75.1701 99.737C74.1965 104.286 73.5474 102.661 79.7145 109.159C80.039 109.485 80.6881 109.81 81.0126 109.81C84.2589 109.81 83.9343 108.185 83.9343 104.286C83.9343 103.311 82.6362 101.686 81.9871 100.712C81.3372 99.737 81.6617 98.4366 82.6362 97.7869C85.8815 96.1625 84.5834 97.1371 89.4523 90.6388C90.1014 89.3393 89.7768 86.0896 89.7768 85.115Z" fill="#3E66B0"/>
<mask id="mask1" mask-type="alpha" maskUnits="userSpaceOnUse" x="31" y="3" width="113" height="113">
<path fill-rule="evenodd" clip-rule="evenodd" d="M32 115.658V3.88281H143.659V115.658H32L143.659 115.658V3.88334H31.9999V115.658H32Z" fill="white"/>
</mask>
<g mask="url(#mask1)">
<path fill-rule="evenodd" clip-rule="evenodd" d="M36.8689 59.7706C36.8689 53.5971 38.167 47.7485 40.1151 42.2247L43.0359 50.0226C43.3604 50.6724 43.685 50.9972 44.0095 51.3221C53.7473 56.521 52.7737 56.8459 55.37 47.7485C56.02 45.1486 59.2653 45.7984 63.4852 45.7984C64.4588 45.7984 69.9768 42.5496 70.9504 42.2247C73.223 40.9243 71.2749 38.9751 73.223 37.6756C82.6363 31.1772 79.7146 32.4767 87.1798 30.5275C88.4788 30.2026 89.4524 28.5773 88.8033 27.2778C88.1543 25.6535 89.7769 23.3784 90.7506 21.4292C92.3732 18.1796 87.5043 17.2049 81.6618 14.6059C81.0127 14.2811 75.8193 13.9553 74.8457 14.9308C68.3541 19.8048 70.9504 19.4799 61.2134 16.5552C69.0032 11.6812 78.4164 8.75731 88.1543 8.75731C100.813 8.75731 112.498 13.3056 121.262 21.1043C118.99 22.4038 119.639 23.7033 120.938 25.6535C121.587 26.953 121.262 28.5773 119.963 29.2271L118.99 29.552C117.367 30.5275 117.367 32.8016 118.665 33.7762L120.938 35.4006L121.262 35.7263C127.429 38.3253 129.701 40.2746 131.649 38.3253C131.974 37.6756 132.623 37.6756 133.272 37.6756C134.245 39.6248 134.894 41.2501 135.543 43.5242C132.623 42.2247 132.623 42.5496 130.675 44.8237C129.376 46.1232 127.754 45.1486 125.807 44.8237C124.832 44.4989 124.183 43.8491 124.183 42.8745C124.183 39.3 119.639 41.2501 116.069 42.2247H115.42C112.822 42.2247 109.577 41.575 109.252 43.8491C108.603 47.4236 109.252 46.1232 103.409 50.3475C101.787 51.3221 102.436 53.2722 103.409 59.7706C103.409 60.4204 103.734 60.7453 104.059 61.0701C110.875 66.9188 108.278 66.5939 116.393 63.9949C118.99 63.3451 118.665 65.9441 120.938 65.9441H122.885C122.885 73.0923 122.56 71.7928 125.157 75.3673C127.105 77.9663 122.236 80.891 124.832 83.1652C126.131 84.1407 125.807 84.7904 125.481 86.4148C124.832 89.3387 128.078 88.364 128.078 91.2888C118.665 103.636 104.059 111.435 87.5043 111.435C59.5899 110.784 36.8689 88.0392 36.8689 59.7706ZM143.659 59.7706C143.659 28.9022 118.665 3.8833 87.8289 3.8833C56.9936 3.8833 31.9999 28.9022 31.9999 59.7706C31.9999 90.6391 56.9936 115.658 87.8289 115.658C118.665 115.658 143.659 90.6391 143.659 59.7706Z" fill="#3E66B0"/>
</g>
<path fill-rule="evenodd" clip-rule="evenodd" d="M11.5899 52.4752C11.5899 55.8025 8.99529 58.5 5.79495 58.5C2.59461 58.5 0 55.8025 0 52.4752C0 49.1479 2.59461 46.4503 5.79495 46.4503C8.99529 46.4503 11.5899 49.1479 11.5899 52.4752Z" fill="#F60000"/>
<path fill-rule="evenodd" clip-rule="evenodd" d="M87.5591 4.76562C118.246 4.76562 143.118 29.664 143.118 60.3828C143.118 91.1016 118.246 116 87.5591 116C87.4431 116 87.3272 116 87.2113 115.999C106.575 115.106 118.465 108.223 127.613 98.0362C128.085 97.5105 127.859 96.1827 127.633 94.8578C127.415 93.575 127.197 92.2949 127.613 91.7483C127.613 90.3433 126.86 89.8427 126.154 89.3732C125.398 88.8703 124.695 88.4031 125.029 86.898C125.065 86.7207 125.1 86.555 125.133 86.3993C125.404 85.1355 125.533 84.5281 124.383 83.6644C123.045 82.4924 123.699 81.147 124.372 79.7629C124.998 78.4739 125.641 77.1513 124.706 75.9039C123.637 74.4325 123.066 73.7911 122.763 73.0412C122.334 71.9784 122.445 70.6976 122.445 66.5266H120.507C119.472 66.5266 118.978 65.9845 118.499 65.4587C117.932 64.8359 117.386 64.2358 115.985 64.5864C112.054 65.8456 110.649 66.5685 109.459 66.3075C108.205 66.0324 107.191 64.6635 103.71 61.6762C103.387 61.3529 103.064 61.0295 103.064 60.3828C102.909 59.3506 102.763 58.4337 102.632 57.6177C101.946 53.3211 101.707 51.8207 103.064 51.0055C106.678 48.3927 107.796 47.9036 108.28 47.0535C108.574 46.5359 108.634 45.8845 108.878 44.5384C109.143 42.6864 111.353 42.7826 113.563 42.8788C114.055 42.9002 114.546 42.9216 115.016 42.9216H115.662C116.162 42.7849 116.683 42.6289 117.206 42.4717C120.4 41.5138 123.737 40.5128 123.737 43.5683C123.737 44.5384 124.383 45.1851 125.352 45.5084C125.839 45.5897 126.306 45.7118 126.752 45.8285C128.081 46.1764 129.23 46.4769 130.197 45.5084C130.322 45.3634 130.438 45.2263 130.547 45.0971C132.147 43.2101 132.322 43.0045 135.043 44.215C134.397 41.9515 133.751 40.3348 132.782 38.3946C132.136 38.3946 131.489 38.3946 131.166 39.0413C129.689 40.5208 128.023 39.7439 124.593 38.1444C123.526 37.6464 122.287 37.0687 120.83 36.4545L120.507 36.1311L118.246 34.5144C116.954 33.5443 116.954 31.2808 118.569 30.3107L119.538 29.9874C120.83 29.3407 121.153 27.7239 120.507 26.4305C119.215 24.4903 118.569 23.1969 120.83 21.9035C112.108 14.1429 100.48 9.61596 87.8821 9.61596C78.1915 9.61596 68.824 12.5262 61.0716 17.3765C66.2491 18.9314 67.9227 19.7478 69.3439 19.4313C70.5827 19.1553 71.6297 18.0186 74.6383 15.7597C75.6074 14.7897 80.7757 15.113 81.4217 15.4364C82.593 15.9575 83.725 16.413 84.7727 16.8346C88.926 18.5059 91.7559 19.6447 90.4662 22.2268C90.2749 22.6098 90.0585 23.0054 89.8392 23.4061C88.9476 25.0354 88.0096 26.7496 88.5281 28.0472C89.1741 29.3407 88.2051 30.9574 86.913 31.2808C83.7287 32.1124 82.4433 32.3499 81.2764 32.8591C79.7208 33.5378 78.3758 34.6994 73.0233 38.3946C72.0927 39.0157 72.0557 39.7858 72.0185 40.5619C71.9782 41.4021 71.9376 42.2492 70.7621 42.9216C70.3949 43.0441 69.3783 43.5846 68.2044 44.2086C66.2806 45.2313 63.9346 46.4785 63.3327 46.4785C62.5946 46.4785 61.8864 46.4585 61.2169 46.4396C58.0777 46.3511 55.7898 46.2865 55.2573 48.4186C54.0187 52.7583 53.5964 54.9436 52.4254 55.4731C51.1532 56.0483 48.9975 54.6695 43.9517 51.9756C43.6286 51.6522 43.3056 51.3288 42.9826 50.6821L37.3582 39.0413C37.3582 39.0413 33.3455 48.4187 33.3455 62.8322C33.3455 87.4914 52.4211 109.318 75.8437 114.762C50.7838 109.378 32 87.0783 32 60.3828C32 29.664 56.8724 4.76562 87.5591 4.76562ZM75.8437 114.762C79.5115 115.549 83.3138 115.975 87.2113 115.999C86.7924 116.018 86.37 116.035 85.944 116.048C82.5185 115.969 79.1381 115.527 75.8437 114.762Z" fill="#4973B6"/>
<path fill-rule="evenodd" clip-rule="evenodd" d="M117.271 39.2361C116.1 38.3859 115.829 36.7644 116.664 35.6144C117.5 34.4646 119.126 34.2218 120.296 35.072C121.466 35.9222 121.738 37.5437 120.902 38.6935C120.067 39.8435 118.441 40.0863 117.271 39.2361Z" fill="#DC317F"/>
<path fill-rule="evenodd" clip-rule="evenodd" d="M145.799 64.997C143.703 63.4741 143.217 60.5697 144.713 58.5101C146.21 56.4504 149.122 56.0153 151.218 57.5382C153.314 59.0611 153.801 61.9656 152.304 64.0252C150.808 66.0848 147.895 66.5199 145.799 64.997Z" fill="#F60000"/>
<path fill-rule="evenodd" clip-rule="evenodd" d="M153.838 21.2934L155.759 18.6492L158.45 20.6044L160.437 17.8689L157.746 15.9138L159.668 13.2696L156.884 11.247L154.962 13.8911L152.271 11.936L150.284 14.6715L152.975 16.6266L151.054 19.2708L153.838 21.2934Z" fill="#0063F7"/>
</svg>
